<?xml version="1.0" encoding="UTF-8"?>
<svg width="133px" height="159px" viewBox="0 0 133 159" version="1.1" xmlns="http://www.w3.org/2000/svg" xmlns:xlink="http://www.w3.org/1999/xlink">
    <!-- Generator: Sketch 51.2 (57519) - http://www.bohemiancoding.com/sketch -->
    <title>Group</title>
    <desc>Created with Sketch.</desc>
    <defs></defs>
    <g id="Pages" stroke="none" stroke-width="1" fill="none" fill-rule="evenodd">
        <g id="Index" transform="translate(-1104.000000, -1232.000000)" fill="#FFFFFF" fill-rule="nonzero">
            <g id="services" transform="translate(-5.000000, 1142.000000)">
                <g id="Delivery" transform="translate(138.000000, 72.000000)">
                    <g id="delivery">
                        <g id="Group" transform="translate(971.000000, 18.000000)">
                            <path d="M87.133,33.767 C95.254,33.767 102.078,28.225 104.033,20.718 L109.5,21.532 C110.678009,21.7061898 111.774624,20.8936837 111.951,19.716 C112.126348,18.5377012 111.313298,17.4403528 110.135,17.265 L104.594,16.44 C104.596,16.394 104.598,16.349 104.598,16.302 C104.598,16.12 104.592,15.94 104.584,15.76 C104.584,15.76 104.133,9.242 103.51,6.523 C102.889,3.804 100.975,3.227 100.975,3.227 C91.205,1.015 81.203,0.789 78.6,0.789 C75.997,0.789 75.442,2.121 75.442,2.121 L72.292,7.117 L72.282,7.114 C72.206,7.236 72.136,7.359 72.063,7.482 L72.036,7.525 C70.4826044,10.1889884 69.6656818,13.2181937 69.669,16.302 C69.668,25.948 77.488,33.767 87.133,33.767 Z M125.535,73.076 L125.535,73.074 L98.793,70.906 L89.547,49.794 C89.547,49.794 89.086,47.02 83.539,41.318 C77.99,35.616 66.74,37.928 66.74,37.928 C66.74,37.928 42.854,42.397 34.995,44.246 C27.135,46.096 26.827,54.109 26.827,54.109 L26.195,58.628 L11.017,55.687 C9.39197005,55.3787121 7.82236784,56.4385061 7.501,58.061 L0.09,96.303 C-0.220555165,97.9288283 0.840793567,99.5000713 2.465,99.819 L53.661,109.742 C53.776,109.764 53.891,109.766 54.007,109.775 L54.009,109.775 C53.281,109.879 52.718,109.74 52.718,109.74 L43.318,107.891 L40.236,124.996 L16.676,145.359 C14.5104679,147.067936 13.4700129,149.835985 13.9737095,152.548232 C14.477406,155.260478 16.4423281,157.470393 19.0770445,158.287866 C21.7117609,159.105339 24.5825055,158.395785 26.533,156.445 C26.533,156.445 54.258,134.395 56.108,132.854 C57.958,131.314 58.881,129.001 58.881,129.001 C58.881,129.001 63.422,115.053 64.66,112.127 C65.508,110.123 69.592,111.048 69.592,111.048 L92.477,119.679 L100.092,148.741 C100.174,149.371 100.334,149.975 100.565,150.545 L100.567,150.545 C102.02114,154.153422 106.013132,156.028541 109.718738,154.843755 C113.424344,153.65897 115.588012,149.815714 114.679,146.033 C113.837,141.068 110.075,118.987 109.118,114.207 C108.04,108.813 104.497,107.273 104.497,107.273 C104.497,107.273 83.229,95.715 81.843,94.944 C80.456,94.174 80.765,92.17 80.765,92.17 L84.695,77.839 L87.468,83.695 C87.468,83.695 89.087,86.969 91.552,87.086 L124.909,87.906 C126.879732,87.906 128.769733,87.1230614 130.163157,85.7294498 C131.556581,84.3358383 132.339265,82.4457318 132.339,80.475 C132.33662,76.6159582 129.380321,73.4011353 125.535,73.076 Z M54.104,57.807 L52.315,63.687 L62.213,65.606 L41.999,61.689 L42.547,59.193 L54.104,57.807 Z M51.855,103.28 L6.551,94.499 L12.821,62.146 L25.363,64.577 L23.745,76.144 L23.105,80.55 C23.1,80.576 23.097,80.606 23.093,80.632 L23.075,80.759 L23.077,80.759 C22.8039166,82.8772686 23.4556018,85.0106125 24.8657716,86.6146878 C26.2759414,88.2187631 28.3082013,89.1384204 30.444,89.139 C32.5774166,89.1388457 34.6077732,88.2213894 36.0178061,86.6203667 C37.427839,85.019344 38.0814056,82.8893381 37.812,80.773 L40.713,67.55 L58.126,70.924 L51.855,103.28 Z M19.05,12.008 L57.077,12.008 C58.177,12.008 59.077,11.112 59.077,10.018 C59.077,8.924 58.177,8.028 57.077,8.028 L19.05,8.028 C17.95,8.028 17.05,8.924 17.05,10.018 C17.05,11.112 17.95,12.008 19.05,12.008 Z M32.08,18.025 C30.98,18.025 30.08,18.921 30.08,20.015 C30.08,21.109 30.98,22.005 32.08,22.005 L55.039,22.005 C56.139,22.005 57.039,21.109 57.039,20.015 C57.0334966,18.9143377 56.139676,18.0249862 55.039,18.025 L32.08,18.025 Z" id="Shape"></path>
                        </g>
                    </g>
                </g>
            </g>
        </g>
    </g>
</svg>